<svg xmlns="http://www.w3.org/2000/svg" viewBox="0 0 1044 439"><defs><style>.cls-1{isolation:isolate;}.cls-2{fill:#036;}.cls-3{fill:#082d53;}.cls-4{fill:#4b8da3;}.cls-5{font-size:320px;font-family:ProximaNova-Bold, Proxima Nova;font-weight:700;}.cls-5,.cls-8{fill:#fff;}.cls-6{fill:#60add8;}.cls-7{mix-blend-mode:soft-light;}</style></defs><g class="cls-1"><g id="Layer_1" data-name="Layer 1"><path class="cls-2" d="M72,427a57.72,57.72,0,0,1-57.33-53.08c-.11-1.43-.17-2.93-.17-4.42V69.5A57.56,57.56,0,0,1,72,12H972a57.56,57.56,0,0,1,57.5,57.5v300A57.56,57.56,0,0,1,972,427Z"/><path class="cls-3" d="M972,19.5a50,50,0,0,1,50,50v300a50,50,0,0,1-50,50H72a50,50,0,0,1-49.85-46.15c-.1-1.27-.15-2.56-.15-3.85V69.5a50,50,0,0,1,50-50H972m0-15H72a65.08,65.08,0,0,0-65,65v300c0,1.68.07,3.37.2,5a65,65,0,0,0,64.8,60H972a65.08,65.08,0,0,0,65-65V69.5a65.08,65.08,0,0,0-65-65Z"/><path class="cls-4" d="M1022,178.17V369.5a50,50,0,0,1-50,50H72a50,50,0,0,1-49.85-46.15V181l6.42,5.32a90,90,0,0,0,114.85,0l8.59-7.12a10,10,0,0,1,12.76,0l.53.44,8.06,6.68a90,90,0,0,0,114.86,0l8.59-7.11a10,10,0,0,1,12.76,0l8.59,7.12a90,90,0,0,0,114.86,0l8.59-7.12a10,10,0,0,1,12.76,0l8.6,7.12a90,90,0,0,0,114.85,0l8.6-7.12a10,10,0,0,1,12.76,0l8.59,7.12a90,90,0,0,0,114.86,0l8.59-7.12a10,10,0,0,1,12.76,0l8.59,7.12a90,90,0,0,0,114.85,0l8.59-7.12a10,10,0,0,1,12.76,0l8.59,7.12a90,90,0,0,0,111.79,2.42c1-.78,2.06-1.59,3.07-2.43Z"/><text class="cls-5" transform="translate(69.05 308.06)">Junior</text><path class="cls-6" d="M1022,264.34V369.5a50,50,0,0,1-50,50H72a50,50,0,0,1-50-50V265a89.85,89.85,0,0,0,55.07-20.68l8.59-7.11a10,10,0,0,1,12.76,0l8.59,7.12a90,90,0,0,0,114.86,0l8.59-7.12a10,10,0,0,1,12.76,0l8.6,7.12a90,90,0,0,0,114.85,0l8.6-7.12a10,10,0,0,1,12.76,0l8.59,7.12a90,90,0,0,0,114.86,0l8.59-7.12a10,10,0,0,1,12.76,0l8.59,7.12a90,90,0,0,0,114.85,0l8.59-7.12a10,10,0,0,1,12.76,0l8.59,7.12a90,90,0,0,0,114.86,0l8.59-7.11a10,10,0,0,1,12.76,0l8.59,7.12a90,90,0,0,0,114.86,0l8.59-7.12a10,10,0,0,1,12.76,0l8.6,7.12A89.66,89.66,0,0,0,1022,264.34Z"/><g class="cls-7"><path class="cls-8" d="M201.78,256.94c-7,37.47-35.6,55-73.53,55-21.44,0-41.92-5.76-57.28-20.8l19.84-34.88c8.32,8,19.2,15.36,33.92,15.36,9.37,0,17.22-2.9,22.94-8.11A90,90,0,0,0,201.78,256.94Z"/><path class="cls-8" d="M389.69,238.61v69.45H349.05V288.54c-10.56,11.84-29.12,23.36-54.4,23.36-33.92,0-49.92-18.56-49.92-48.64V238.48l7.09,5.87a89.46,89.46,0,0,0,36.28,18.18h0c4.31,9.68,13.5,13.21,25.74,13.21,15.68,0,28.16-8.64,35.2-17.6v-2.36a90.59,90.59,0,0,0,17.62-11.43l8.6-7.12a10,10,0,0,1,12.76,0Z"/><path class="cls-8" d="M470.65,263.51v44.55H430V261.78A90.12,90.12,0,0,0,470.65,263.51Z"/><path class="cls-8" d="M575,261.83v46.23H534.33V238.47l7.09,5.88A89.68,89.68,0,0,0,575,261.83Z"/><path class="cls-8" d="M655.92,244.63v63.43H615.28V263.54A89.61,89.61,0,0,0,655.92,244.63Z"/><path class="cls-8" d="M846.6,254.74c-9.13,32.76-37.17,57.16-78.68,57.16-45.08,0-74.34-29.14-80.41-66.5A89.67,89.67,0,0,0,741.18,265h0c6.54,6.65,15.54,10.73,26.73,10.73,22.14,0,35.94-16,39-36.26l2.72-2.25a10,10,0,0,1,12.76,0l8.59,7.12A90,90,0,0,0,846.6,254.74Z"/><path class="cls-8" d="M920.56,259.14v48.92H879.92V264.64A90.12,90.12,0,0,0,920.56,259.14Z"/></g></g></g></svg>