<svg xmlns="http://www.w3.org/2000/svg" viewBox="0 0 1044 439"><defs><style>.cls-1{isolation:isolate;}.cls-2{fill:#036;}.cls-3{fill:#082d53;}.cls-4{fill:#376870;}.cls-5{fill:#3c6e84;}.cls-6{fill:#4b8da3;}.cls-7{font-size:350px;font-family:ProximaNova-Bold, Proxima Nova;font-weight:700;}.cls-10,.cls-7{fill:#fff;}.cls-8{fill:#60add8;}.cls-9{mix-blend-mode:soft-light;}</style></defs><g class="cls-1"><g id="Layer_1" data-name="Layer 1"><rect class="cls-2" x="14.42" y="12" width="1015" height="415" rx="57.5"/><path class="cls-3" d="M971.92,19.5a50,50,0,0,1,50,50v300a50,50,0,0,1-50,50h-900a50,50,0,0,1-50-50V69.5a50,50,0,0,1,50-50h900m0-15h-900a65.08,65.08,0,0,0-65,65v300a65.08,65.08,0,0,0,65,65h900a65.07,65.07,0,0,0,65-65V69.5a65.07,65.07,0,0,0-65-65Z"/><path class="cls-4" d="M1021.93,57.17V248.5a50,50,0,0,1-50,50h-900a50,50,0,0,1-49.85-46.15V60l6.41,5.32a90,90,0,0,0,114.86,0l8.58-7.12a10,10,0,0,1,12.77,0l.52.44,8.06,6.68a90,90,0,0,0,114.87,0l8.58-7.11a10,10,0,0,1,12.76,0l8.6,7.12a90,90,0,0,0,114.86,0l8.58-7.12a10,10,0,0,1,12.76,0l8.61,7.12a90,90,0,0,0,114.84,0l8.61-7.12a10,10,0,0,1,12.76,0l8.59,7.12a90,90,0,0,0,114.85,0l8.59-7.12a10,10,0,0,1,12.77,0l8.58,7.12a90,90,0,0,0,114.86,0l8.58-7.12a10,10,0,0,1,12.77,0l8.58,7.12a90,90,0,0,0,111.8,2.42q1.56-1.17,3.06-2.43Z"/><path class="cls-5" d="M1022.08,145.28V250.44a50,50,0,0,1-50,50h-900a50,50,0,0,1-50-50V146a89.85,89.85,0,0,0,55.07-20.68l8.58-7.11a10,10,0,0,1,12.76,0l8.6,7.12a90,90,0,0,0,114.86,0l8.59-7.12a10,10,0,0,1,12.76,0l8.6,7.12a90,90,0,0,0,114.85,0l8.59-7.12a10,10,0,0,1,12.76,0l8.6,7.12a90,90,0,0,0,114.86,0l8.58-7.12a10,10,0,0,1,12.77,0l8.59,7.12a90,90,0,0,0,114.85,0l8.58-7.12a10,10,0,0,1,12.77,0l8.59,7.12a90,90,0,0,0,114.85,0l8.59-7.11a10,10,0,0,1,12.76,0l8.6,7.12a90,90,0,0,0,114.86,0l8.59-7.12a10,10,0,0,1,12.76,0l8.59,7.12A89.72,89.72,0,0,0,1022.08,145.28Z"/><path class="cls-6" d="M1021.93,178.17V369.5a50,50,0,0,1-50,50h-900a50,50,0,0,1-49.85-46.15V181l6.41,5.32a90,90,0,0,0,114.86,0l8.58-7.12a10,10,0,0,1,12.77,0l.52.44,8.06,6.68a90,90,0,0,0,114.87,0l8.58-7.11a10,10,0,0,1,12.76,0l8.6,7.12a90,90,0,0,0,114.86,0l8.58-7.12a10,10,0,0,1,12.76,0l8.61,7.12a90,90,0,0,0,114.84,0l8.61-7.12a10,10,0,0,1,12.76,0l8.59,7.12a90,90,0,0,0,114.85,0l8.59-7.12a10,10,0,0,1,12.77,0l8.58,7.12a90,90,0,0,0,114.86,0l8.58-7.12a10,10,0,0,1,12.77,0l8.58,7.12a90,90,0,0,0,111.8,2.42q1.56-1.17,3.06-2.43Z"/><text class="cls-7" transform="translate(170.01 328.07)">Klan</text><path class="cls-8" d="M1021.92,264.34V369.5a50,50,0,0,1-50,50h-900a50,50,0,0,1-50-50V265A89.83,89.83,0,0,0,77,244.34l9.23-7.64a9,9,0,0,1,11.49,0l9.22,7.65a90,90,0,0,0,114.86,0L231,236.7a9,9,0,0,1,11.49,0l9.23,7.65a90,90,0,0,0,114.86,0l9.23-7.65a9,9,0,0,1,11.49,0l9.22,7.65a90,90,0,0,0,114.87,0l9.22-7.65a9,9,0,0,1,11.49,0l9.23,7.65a90,90,0,0,0,114.85,0l9.22-7.65a9,9,0,0,1,11.49,0l9.23,7.65a90,90,0,0,0,114.85,0l9.23-7.64a9,9,0,0,1,11.49,0l9.22,7.65a90,90,0,0,0,114.86,0L955,236.7a9,9,0,0,1,11.49,0l9.23,7.65A89.73,89.73,0,0,0,1021.92,264.34Z"/><g class="cls-9"><path class="cls-10" d="M252.39,244.88l-9.59,11.44v71.75H193.11V260.34a89.59,89.59,0,0,0,28.68-16L231,236.7a9,9,0,0,1,11.48,0l9.23,7.65Z"/><path class="cls-10" d="M393,328.07H331.7l-51.21-67.71a90.07,90.07,0,0,0,58.13-.26Z"/><path class="cls-10" d="M459.11,264.9v63.17H414.66V256A90,90,0,0,0,459.11,264.9Z"/><path class="cls-10" d="M649.16,249.62v78.45H604.7v-17.5c-11.56,13.65-31.5,21.7-53.56,21.7-26.94,0-58.79-18.2-58.79-56a58.09,58.09,0,0,1,3.89-21.75h0a90.6,90.6,0,0,0,15.15-10.17l9.23-7.65a9,9,0,0,1,11.48,0l9.23,7.65a90.24,90.24,0,0,0,13.94,9.52c-10.69,3.57-18.15,11.6-18.15,23.45,0,15.75,14.35,24.85,31.85,24.85,14.36,0,28.36-4.9,35.71-14.7v-21c-.41-.53-.81-1-1.27-1.54A89.74,89.74,0,0,0,649.16,249.62Z"/><path class="cls-10" d="M737.7,264.86v63.21H693.24v-78.4A89.71,89.71,0,0,0,737.7,264.86Z"/><path class="cls-10" d="M851.79,257.29v70.78H807.35v-89l2.87-2.38a9,9,0,0,1,11.48,0l9.23,7.65A90,90,0,0,0,851.79,257.29Z"/></g></g></g></svg>