<svg id="Layer_1" data-name="Layer 1" xmlns="http://www.w3.org/2000/svg" viewBox="0 0 1044 439"><defs><style>.cls-1{fill:#036;}.cls-2{fill:#082d53;}.cls-3{fill:#fff;}.cls-4{fill:#60add8;}</style></defs><path class="cls-1" d="M72,427a57.46,57.46,0,0,1-57.5-57.5V69.5A57.56,57.56,0,0,1,72,12H972a57.56,57.56,0,0,1,57.5,57.5v300A57.47,57.47,0,0,1,972,427Z"/><path class="cls-2" d="M972,19.5a50,50,0,0,1,50,50v300a50,50,0,0,1-50,50H72a50,50,0,0,1-50-50V69.5a50,50,0,0,1,50-50H972m0-15H72a65.08,65.08,0,0,0-65,65v300a65,65,0,0,0,65,65H972a65,65,0,0,0,65-65V69.5a65.08,65.08,0,0,0-65-65Z"/><path class="cls-3" d="M302.8,160.07l-65.8,168H215.3l-65.8-168v168H99.8V94.62h69.65l56.7,145.61,56.7-145.61h70V328.08H302.8Z"/><path class="cls-3" d="M393.45,107.57a26.6,26.6,0,1,1,26.6,26.6A26.81,26.81,0,0,1,393.45,107.57ZM398,159h44.45V328.08H398Z"/><path class="cls-3" d="M565.29,154.82c34.65,0,55.65,15.05,66.85,30.45l-29,27.31c-8.05-11.91-20.3-18.2-35.7-18.2-26.95,0-45.85,19.6-45.85,49s18.9,49.35,45.85,49.35a42.66,42.66,0,0,0,35.7-18.2l29,27c-11.2,15.75-32.2,30.8-66.85,30.8-52.15,0-89.6-36.75-89.6-88.9C475.69,191.57,513.14,154.82,565.29,154.82Z"/><path class="cls-3" d="M661.19,159h44.45v23.1c11.9-15.05,32.9-27,53.9-27v43.4a56.89,56.89,0,0,0-12.25-1.4c-14.7,0-34.3,8.41-41.65,19.26V328.08H661.19Z"/><path class="cls-3" d="M776.33,243.38c0-48,33.61-88.56,89.26-88.56,56,0,89.6,40.6,89.6,88.56,0,48.3-33.6,88.9-89.6,88.9C809.94,332.28,776.33,291.68,776.33,243.38Zm132.66,0c0-26.25-15.75-49-43.4-49s-43.06,22.75-43.06,49c0,26.6,15.41,49.35,43.06,49.35S909,270,909,243.38Z"/><path class="cls-4" d="M1018.56,387.75A50,50,0,0,1,972,419.5H72a50,50,0,0,1-46.14-30.71,89.89,89.89,0,0,0,51.36-20.51l8.59-7.11a10,10,0,0,1,12.76,0l8.59,7.12a90,90,0,0,0,114.86,0l8.59-7.12a10,10,0,0,1,12.76,0l8.6,7.12a90,90,0,0,0,114.85,0l8.6-7.12a10,10,0,0,1,12.76,0l8.59,7.12a90,90,0,0,0,114.86,0l8.59-7.12a10,10,0,0,1,12.76,0l8.59,7.12a90,90,0,0,0,114.85,0l8.59-7.12a10,10,0,0,1,12.76,0l8.59,7.12a90,90,0,0,0,114.86,0l8.59-7.11a10,10,0,0,1,12.76,0l8.59,7.12a90,90,0,0,0,114.86,0l8.59-7.12a10,10,0,0,1,12.76,0l8.6,7.12A89.55,89.55,0,0,0,1018.56,387.75Z"/></svg>