<svg xmlns="http://www.w3.org/2000/svg" viewBox="0 0 1044 439"><defs><style>.cls-1{isolation:isolate;}.cls-2{fill:#036;}.cls-3{fill:#082d53;}.cls-4,.cls-6{fill:#fff;}.cls-5{fill:#60add8;}.cls-6{mix-blend-mode:soft-light;}</style></defs><g class="cls-1"><g id="Layer_1" data-name="Layer 1"><rect class="cls-2" x="14.5" y="12" width="1015" height="415" rx="57.5"/><path class="cls-3" d="M972,19.5a50,50,0,0,1,50,50v300a50,50,0,0,1-50,50H72a50,50,0,0,1-50-50V69.5a50,50,0,0,1,50-50H972m0-15H72a65.08,65.08,0,0,0-65,65v300a65.08,65.08,0,0,0,65,65H972a65.08,65.08,0,0,0,65-65V69.5a65.08,65.08,0,0,0-65-65Z"/><path class="cls-4" d="M408.61,160.07l-65.8,168h-21.7l-65.8-168v168h-49.7V94.62h69.65L332,240.22l56.7-145.6h70V328.07H408.61Z"/><path class="cls-4" d="M499.25,107.57a26.6,26.6,0,1,1,26.6,26.6A26.81,26.81,0,0,1,499.25,107.57ZM503.8,159h44.45v169H503.8Z"/><path class="cls-4" d="M706.45,225.87c0-23.45-12.25-31.5-31.15-31.5-17.5,0-31.15,9.8-38.5,19.95V328.07H592.35V159H636.8v22c10.85-12.95,31.5-26.25,59.15-26.25,37.1,0,54.95,21,54.95,53.9V328.07H706.45Z"/><path class="cls-4" d="M790.45,107.57a26.6,26.6,0,1,1,26.6,26.6A26.81,26.81,0,0,1,790.45,107.57ZM795,159h44.45v169H795Z"/><path class="cls-5" d="M1022,264.34V369.5a50,50,0,0,1-50,50H72a50,50,0,0,1-50-50V265a89.85,89.85,0,0,0,55.07-20.68l8.59-7.11a10,10,0,0,1,12.76,0l8.59,7.12a90,90,0,0,0,114.86,0l8.59-7.12a10,10,0,0,1,12.76,0l8.6,7.12a90,90,0,0,0,114.85,0l8.6-7.12a10,10,0,0,1,12.76,0l8.59,7.12a90,90,0,0,0,114.86,0l8.59-7.12a10,10,0,0,1,12.76,0l8.59,7.12a90,90,0,0,0,114.85,0l8.59-7.12a10,10,0,0,1,12.76,0l8.59,7.12a90,90,0,0,0,114.86,0l8.59-7.11a10,10,0,0,1,12.76,0l8.59,7.12a90,90,0,0,0,114.86,0l8.59-7.12a10,10,0,0,1,12.76,0l8.6,7.12A89.66,89.66,0,0,0,1022,264.34Z"/><path class="cls-6" d="M255.31,247.1v81h-49.7v-73a90,90,0,0,0,16.26-10.74l8.59-7.12a10,10,0,0,1,12.76,0l8.6,7.12Q253.55,245.78,255.31,247.1Z"/><path class="cls-6" d="M379.17,235.24l-36.36,92.83h-21.7l-25.06-64a89.93,89.93,0,0,0,70.62-19.73l8.6-7.12A10,10,0,0,1,379.17,235.24Z"/><path class="cls-6" d="M458.66,264.93v63.14H408.61V252.75A90,90,0,0,0,458.66,264.93Z"/><path class="cls-6" d="M548.25,249.48v78.59H503.8v-78a88.1,88.1,0,0,0,7.68-5.7l8.59-7.12a10,10,0,0,1,12.76,0l8.59,7.12C543.63,246.18,545.91,247.9,548.25,249.48Z"/><path class="cls-6" d="M636.8,256.66v71.41H592.35V264.81A89.92,89.92,0,0,0,636.8,256.66Z"/><path class="cls-6" d="M750.9,264.76v63.31H706.45V257A90.09,90.09,0,0,0,750.9,264.76Z"/><path class="cls-6" d="M839.45,250.55v77.52H795V248.94c2.07-1.43,4.1-3,6.07-4.6l8.59-7.11a10,10,0,0,1,12.76,0l8.59,7.12A90.39,90.39,0,0,0,839.45,250.55Z"/></g></g></svg>