<svg xmlns="http://www.w3.org/2000/svg" viewBox="0 0 1044 439"><defs><style>.cls-1{isolation:isolate;}.cls-2{fill:#036;}.cls-3{fill:#082d53;}.cls-4{fill:#3c6e84;}.cls-5{fill:#4b8da3;}.cls-6{font-size:350px;font-family:ProximaNova-Bold, Proxima Nova;font-weight:700;letter-spacing:-0.07em;}.cls-10,.cls-6{fill:#fff;}.cls-7{letter-spacing:0em;}.cls-8{fill:#60add8;}.cls-9{mix-blend-mode:soft-light;}</style></defs><g class="cls-1"><g id="Layer_1" data-name="Layer 1"><path class="cls-2" d="M71.92,427A57.72,57.72,0,0,1,14.6,373.92c-.12-1.43-.18-2.93-.18-4.42V69.5A57.57,57.57,0,0,1,71.92,12h900a57.56,57.56,0,0,1,57.5,57.5v300a57.56,57.56,0,0,1-57.5,57.5Z"/><path class="cls-3" d="M971.93,19.5a50,50,0,0,1,50,50v300a50,50,0,0,1-50,50h-900a50,50,0,0,1-49.86-46.15c-.1-1.27-.14-2.56-.14-3.85V69.5a50,50,0,0,1,50-50h900m0-15h-900a65.07,65.07,0,0,0-65,65v300c0,1.69.06,3.38.19,5a65,65,0,0,0,64.81,60h900a65.08,65.08,0,0,0,65-65V69.5a65.08,65.08,0,0,0-65-65Z"/><path class="cls-4" d="M1022.08,145.28V250.44a50,50,0,0,1-50,50h-900a50,50,0,0,1-50-50V146a89.85,89.85,0,0,0,55.07-20.68l8.58-7.11a10,10,0,0,1,12.76,0l8.6,7.12a90,90,0,0,0,114.86,0l8.59-7.12a10,10,0,0,1,12.76,0l8.6,7.12a90,90,0,0,0,114.85,0l8.59-7.12a10,10,0,0,1,12.76,0l8.6,7.12a90,90,0,0,0,114.86,0l8.58-7.12a10,10,0,0,1,12.77,0l8.59,7.12a90,90,0,0,0,114.85,0l8.58-7.12a10,10,0,0,1,12.77,0l8.59,7.12a90,90,0,0,0,114.85,0l8.59-7.11a10,10,0,0,1,12.76,0l8.6,7.12a90,90,0,0,0,114.86,0l8.59-7.12a10,10,0,0,1,12.76,0l8.59,7.12A89.72,89.72,0,0,0,1022.08,145.28Z"/><path class="cls-5" d="M1021.93,178.17V369.5a50,50,0,0,1-50,50h-900a50,50,0,0,1-49.85-46.15V181l6.41,5.32a90,90,0,0,0,114.86,0l8.58-7.12a10,10,0,0,1,12.77,0l.52.44,8.06,6.68a90,90,0,0,0,114.87,0l8.58-7.11a10,10,0,0,1,12.76,0l8.6,7.12a90,90,0,0,0,114.86,0l8.58-7.12a10,10,0,0,1,12.76,0l8.61,7.12a90,90,0,0,0,114.84,0l8.61-7.12a10,10,0,0,1,12.76,0l8.59,7.12a90,90,0,0,0,114.85,0l8.59-7.12a10,10,0,0,1,12.77,0l8.58,7.12a90,90,0,0,0,114.86,0l8.58-7.12a10,10,0,0,1,12.77,0l8.58,7.12a90,90,0,0,0,111.8,2.42q1.56-1.17,3.06-2.43Z"/><text class="cls-6" transform="translate(166.16 328.07)">T<tspan class="cls-7" x="179.9" y="0">rop</tspan></text><path class="cls-8" d="M1021.92,264.34V369.5a50,50,0,0,1-50,50h-900a50,50,0,0,1-50-50V265A89.83,89.83,0,0,0,77,244.34l8.59-7.11a10,10,0,0,1,12.76,0l8.59,7.12a90,90,0,0,0,114.86,0l8.6-7.12a10,10,0,0,1,12.76,0l8.59,7.12a90,90,0,0,0,114.86,0l8.59-7.12a10,10,0,0,1,12.76,0l8.59,7.12a90,90,0,0,0,114.87,0l8.58-7.12a10,10,0,0,1,12.77,0l8.59,7.12a90,90,0,0,0,114.85,0l8.58-7.12a10,10,0,0,1,12.77,0l8.59,7.12a90,90,0,0,0,114.85,0l8.59-7.11a10,10,0,0,1,12.76,0l8.59,7.12a90,90,0,0,0,114.86,0l8.59-7.12a10,10,0,0,1,12.77,0l8.59,7.12A89.73,89.73,0,0,0,1021.92,264.34Z"/><g class="cls-9"><path class="cls-10" d="M293.2,263.62v64.45h-50V237.24l8.58,7.11A89.63,89.63,0,0,0,293.2,263.62Z"/><path class="cls-10" d="M412.55,255v73.1H368.11v-85l7.09-5.87a10,10,0,0,1,12.75,0l8.59,7.12A90.74,90.74,0,0,0,412.55,255Z"/><path class="cls-10" d="M662.11,243.37c0,48.3-33.6,88.9-89.62,88.9-49.24,0-81.21-31.78-87.92-72.56a89.84,89.84,0,0,0,26.84-15.36l8.58-7.12a10,10,0,0,1,9.92-1.64,66.35,66.35,0,0,0-.46,7.78c0,26.6,15.4,49.35,43,49.35,20.08,0,33.88-12,39.94-28.71a89.8,89.8,0,0,0,43.77-19.66l5.83-4.83C662.08,240.8,662.11,242.08,662.11,243.37Z"/><path class="cls-10" d="M865.24,262C859,306.85,830,332.27,791.6,332.27c-20,0-38.5-8.4-52.15-25.9v86.11H695V250.82A89.67,89.67,0,0,0,739.45,265v8.52c7.34,10.5,23.79,19.25,38.15,19.25,25.54,0,42.69-20,42.69-49.35a65.33,65.33,0,0,0-.42-7.64,10.26,10.26,0,0,1,2.48,1.5l8.58,7.12A89.71,89.71,0,0,0,865.24,262Z"/></g></g></g></svg>