<svg id="Layer_1" data-name="Layer 1" xmlns="http://www.w3.org/2000/svg" viewBox="0 0 420 418"><defs><style>.cls-1{fill:#60acd7;}.cls-2{fill:#1a4172;}.cls-3{fill:#142f52;}</style></defs><path class="cls-1" d="M353,263.48a206.9,206.9,0,0,1-15.38,35.33c-.6,1.1-1.21,2.18-1.83,3.26s-1.21,2.07-1.84,3.1C305.76,352,260.51,382.3,209.51,382.3c-51.5,0-97.13-30.92-125.26-78.5-.57-.94-1.12-1.9-1.65-2.86S81.49,299,81,298A207.46,207.46,0,0,1,66,263.5a187.85,187.85,0,0,1,17.8-20l2.29-2.2c.78-.73,1.58-1.47,2.39-2.2,32.32-29.34,74.66-47.13,121-47.13a179.15,179.15,0,0,1,118.58,45c.78.68,1.56,1.36,2.32,2.07s1.51,1.37,2.25,2.06A188.75,188.75,0,0,1,353,263.48Z"/><path class="cls-2" d="M359.32,250.14l-6.07-5-6.08,5c-.82.68-1.67,1.32-2.53,1.92a36.51,36.51,0,0,1-44.05-1.92l-6.08-5-6.06,5a36.54,36.54,0,0,1-46.6,0l-6.09-5-6.06,5a36.54,36.54,0,0,1-46.6,0l-3.27-2.72L177,245.1l-6.08,5a36.51,36.51,0,0,1-46.58,0l-6.09-5-6.06,5a36.52,36.52,0,0,1-40.64,4,35.55,35.55,0,0,1-6-4l-6.06-5-6.08,5A36.3,36.3,0,0,1,43,256.23c.26,1,.54,1.93.83,2.88s.64,2.12,1,3.17c.41,1.27.84,2.53,1.27,3.79s.85,2.41,1.3,3.6c.58,1.55,1.18,3.1,1.8,4.63l.27.66c.25.61.51,1.22.76,1.82.33.78.67,1.56,1,2.34s.69,1.55,1,2.32q1.07,2.3,2.19,4.58,2.23,4.55,4.76,8.93c.42.74.84,1.47,1.27,2.19s.86,1.45,1.3,2.16.71,1.17,1.08,1.75q1.45,2.34,3,4.62c.6.9,1.21,1.79,1.84,2.67s1.21,1.74,1.85,2.6a173,173,0,0,0,279.08,1.24c.7-.93,1.38-1.87,2.06-2.82s1.37-2,2-3a171.59,171.59,0,0,0,17.19-32.12q1.73-4.26,3.23-8.63.79-2.29,1.52-4.63l.09-.3q.47-1.43.87-2.88A36.17,36.17,0,0,1,359.32,250.14Z"/><path class="cls-2" d="M361.23,247.83l-6.06-5a3,3,0,0,0-3.83,0l-6.08,5a33,33,0,0,1-3.21,2.35,33.51,33.51,0,0,1-39.55-2.36l-6.08-5a3,3,0,0,0-3.83,0l-6.06,5a33.54,33.54,0,0,1-42.77,0l-6.08-5a3,3,0,0,0-3.83,0l-6.06,5a33.58,33.58,0,0,1-42.77,0l-6.07-5a3,3,0,0,0-3.82,0l-6.09,5a33.52,33.52,0,0,1-42.75,0l-6.08-5a3,3,0,0,0-3.83,0l-6.06,5a33.55,33.55,0,0,1-42.77,0l-6.06-5a3,3,0,0,0-3.83,0l-6.09,5a33.16,33.16,0,0,1-9.4,5.49c.25,1,.51,2,.79,2.91s.54,1.93.83,2.88a39,39,0,0,0,11.61-6.66L59.57,249l4.15,3.45a39.58,39.58,0,0,0,50.43,0L118.3,249l4.16,3.44a39.53,39.53,0,0,0,50.41,0L177,249l4.15,3.45a39.58,39.58,0,0,0,50.43,0l4.15-3.44,4.16,3.44a39.57,39.57,0,0,0,50.43,0l4.15-3.44,4.17,3.45a39.51,39.51,0,0,0,48.48,1.49c.65-.47,1.29-1,1.92-1.49l4.17-3.45,4.15,3.45a39.32,39.32,0,0,0,17.33,8.27q.47-1.43.87-2.88c.19-.64.38-1.29.56-1.94.09-.32.18-.64.26-1A33.34,33.34,0,0,1,361.23,247.83Z"/><path class="cls-3" d="M329.3,301l-6.06-5-6.08,5a36.6,36.6,0,0,1-34.68,6.58A36.19,36.19,0,0,1,270.56,301l-6.06-5-6.09,5a36.51,36.51,0,0,1-46.58,0l-6.08-5-6.06,5a36.54,36.54,0,0,1-46.6,0l-3.27-2.72L147,296l-6.09,5a36.51,36.51,0,0,1-46.58,0l-6.08-5-6.06,5a36.35,36.35,0,0,1-14.55,7.32c.59.87,1.21,1.74,1.85,2.6a173,173,0,0,0,279.08,1.24c.7-.93,1.38-1.87,2.06-2.82A36.38,36.38,0,0,1,329.3,301Z"/><path class="cls-3" d="M331.22,298.71l-6.06-5a3,3,0,0,0-3.83,0l-6.09,5a33.4,33.4,0,0,1-31.84,6,32.9,32.9,0,0,1-10.92-6l-6.07-5a3,3,0,0,0-3.83,0l-6.08,5a33.52,33.52,0,0,1-42.75,0l-6.09-5a3,3,0,0,0-3.82,0l-6.06,5a33.58,33.58,0,0,1-42.77,0l-6.07-5a3,3,0,0,0-3.83,0l-6.08,5a33.52,33.52,0,0,1-42.75,0l-6.09-5a3,3,0,0,0-3.82,0l-6.06,5a33.39,33.39,0,0,1-14.48,7c.6.9,1.21,1.79,1.84,2.67s1.21,1.74,1.85,2.6a39.13,39.13,0,0,0,14.61-7.62l4.16-3.44,4.16,3.45a39.55,39.55,0,0,0,50.41,0l4.16-3.45,4.16,3.45a39.57,39.57,0,0,0,50.42,0l4.15-3.44,4.17,3.45a39.55,39.55,0,0,0,50.41,0l4.16-3.45,4.15,3.44a39,39,0,0,0,12.91,7.13,39.37,39.37,0,0,0,37.52-7.12l4.17-3.45,4.15,3.45a39.27,39.27,0,0,0,21.21,8.85c.7-.93,1.38-1.87,2.06-2.82s1.37-2,2-3A33.47,33.47,0,0,1,331.22,298.71Z"/><path class="cls-3" d="M209.51,36.3a173,173,0,0,1,173,173c0,1.75,0,3.49-.08,5.22q0,1.5-.12,3c0,1-.09,2-.16,3a172.51,172.51,0,0,1-3.07,23.24q-1.14,5.67-2.66,11.19c-.08.32-.17.64-.26,1-.18.65-.37,1.3-.56,1.94q-.41,1.46-.87,2.88l-.09.3q-.72,2.34-1.52,4.63-1.5,4.37-3.23,8.63A171.59,171.59,0,0,1,352.7,306.4c-.67,1-1.35,2-2,3s-1.36,1.89-2.06,2.82a173,173,0,0,1-279.08-1.24c-.64-.86-1.26-1.73-1.85-2.6s-1.24-1.77-1.84-2.67q-1.55-2.28-3-4.62c-.37-.58-.73-1.16-1.08-1.75s-.87-1.44-1.3-2.16-.85-1.45-1.27-2.19q-2.52-4.38-4.76-8.93-1.12-2.28-2.19-4.58c-.36-.77-.7-1.55-1-2.32s-.68-1.56-1-2.34c-.25-.6-.51-1.21-.76-1.82l-.27-.66c-.62-1.53-1.22-3.08-1.8-4.63-.45-1.19-.88-2.39-1.3-3.6s-.86-2.52-1.27-3.79c-.34-1-.67-2.11-1-3.17s-.57-1.91-.83-2.88-.54-1.93-.79-2.91q-1.24-4.74-2.22-9.58A170.64,170.64,0,0,1,36.84,220c-.07-1-.12-2-.16-3s-.08-2-.11-3c0-1.53-.06-3.06-.06-4.6a173,173,0,0,1,173-173m0-25a197.85,197.85,0,0,0-198,198c0,1.75,0,3.51.07,5.25v.09c0,1,.07,2.2.12,3.42s.12,2.44.19,3.53a195.75,195.75,0,0,0,3.56,27.1c.73,3.64,1.58,7.3,2.52,10.89.31,1.22.61,2.34.91,3.39s.6,2.13,1,3.31.72,2.39,1.15,3.7.93,2.83,1.39,4.16l0,.07,0,.06c.53,1.52,1,2.9,1.52,4.19.68,1.83,1.37,3.59,2,5.23l0,0v0l.14.33.13.33.57,1.37.25.59,0,.07,0,.06q.54,1.29,1.11,2.58l.08.18.08.19.33.72c.27.61.54,1.22.83,1.82.8,1.75,1.62,3.45,2.42,5.07,1.69,3.43,3.53,6.9,5.47,10.27L39,310l.28.45,1.11,1.85c.41.68.83,1.37,1.31,2.11,1.09,1.77,2.24,3.53,3.4,5.25.72,1.08,1.4,2.07,2.08,3s1.45,2.07,2.22,3.11a198.11,198.11,0,0,0,250.69,59.67,199.68,199.68,0,0,0,68.57-58.29c.88-1.17,1.68-2.29,2.35-3.22l.06-.08.05-.08c.9-1.27,1.64-2.34,2.33-3.37a196.69,196.69,0,0,0,19.63-36.72c1.32-3.26,2.56-6.57,3.69-9.84.67-1.93,1.25-3.71,1.78-5.45l0-.09,0-.08v0c.36-1.12.7-2.26,1-3.4.21-.7.42-1.42.62-2.14.12-.42.24-.85.35-1.28,1.14-4.19,2.15-8.45,3-12.66a197.38,197.38,0,0,0,3.5-26.5c.08-1.08.14-2.24.2-3.54,0-1.12.1-2.25.13-3.37.06-2.13.09-4.08.09-6a197.85,197.85,0,0,0-198-198Z"/></svg>